<svg width="102" height="24" viewBox="0 0 136 48" fill="none" xmlns="http://www.w3.org/2000/svg">
<rect x="2.5" y="2.5" width="131" height="43" rx="21.5" fill="#521D24" stroke="white" stroke-width="5"/>
<path d="M24.4326 16.4932L26.2344 16.3965L30.2334 27.5762L31.7275 27.9189V29H26.5068V27.9189L28.1768 27.5762L27.4912 25.5811H22.8154L22.1123 27.5762L23.7998 27.9189V29H18.8516V27.9189L20.3281 27.5762L24.4326 16.4932ZM25.1885 18.7256L23.2988 24.1396H27.0078L25.1885 18.7256ZM42.4238 28.9121L39.3652 29L39.2246 27.9717C38.4219 28.7744 37.4785 29.1758 36.3945 29.1758C35.1348 29.1758 34.1885 28.7598 33.5557 27.9277C32.9287 27.0957 32.6152 25.9531 32.6152 24.5C32.6152 22.9062 33.0166 21.6377 33.8193 20.6943C34.6279 19.751 35.8174 19.2793 37.3877 19.2793C37.9736 19.2793 38.542 19.376 39.0928 19.5693V16.5811L37.5635 16.2207V15.2275L40.8945 15.1396V27.5586L42.4238 27.9189V28.9121ZM39.0928 21.0811C39.0576 21.0576 38.9668 21.0195 38.8203 20.9668C38.6797 20.9082 38.4688 20.8525 38.1875 20.7998C37.9062 20.7471 37.5781 20.7207 37.2031 20.7207C35.4043 20.7207 34.5049 21.9219 34.5049 24.3242C34.5049 25.3789 34.6865 26.2139 35.0498 26.8291C35.4189 27.4385 35.9873 27.7432 36.7549 27.7432C37.2119 27.7432 37.6133 27.6436 37.959 27.4443C38.3105 27.2451 38.5859 27.0283 38.7852 26.7939C38.9902 26.5596 39.0928 26.4248 39.0928 26.3896V21.0811ZM53.498 28.9121L50.4395 29L50.2988 27.9717C49.4961 28.7744 48.5527 29.1758 47.4688 29.1758C46.209 29.1758 45.2627 28.7598 44.6299 27.9277C44.0029 27.0957 43.6895 25.9531 43.6895 24.5C43.6895 22.9062 44.0908 21.6377 44.8936 20.6943C45.7021 19.751 46.8916 19.2793 48.4619 19.2793C49.0479 19.2793 49.6162 19.376 50.167 19.5693V16.5811L48.6377 16.2207V15.2275L51.9688 15.1396V27.5586L53.498 27.9189V28.9121ZM50.167 21.0811C50.1318 21.0576 50.041 21.0195 49.8945 20.9668C49.7539 20.9082 49.543 20.8525 49.2617 20.7998C48.9805 20.7471 48.6523 20.7207 48.2773 20.7207C46.4785 20.7207 45.5791 21.9219 45.5791 24.3242C45.5791 25.3789 45.7607 26.2139 46.124 26.8291C46.4932 27.4385 47.0615 27.7432 47.8291 27.7432C48.2861 27.7432 48.6875 27.6436 49.0332 27.4443C49.3848 27.2451 49.6602 27.0283 49.8594 26.7939C50.0645 26.5596 50.167 26.4248 50.167 26.3896V21.0811ZM64.6777 20.8965H62.0674V26.6797C62.0674 27.4121 62.3662 27.7783 62.9639 27.7783C63.3506 27.7783 63.8193 27.6289 64.3701 27.3301L64.8535 28.2793C64.0391 28.877 63.1982 29.1758 62.3311 29.1758C61.7217 29.1758 61.2236 28.9766 60.8369 28.5781C60.4561 28.1738 60.2656 27.5059 60.2656 26.5742V20.8965H58.4639V19.7275L60.2656 19.5518V17.2842L62.0674 16.9238V19.5518H64.6777V20.8965ZM70.5137 19.2793C71.8438 19.2793 72.8809 19.71 73.625 20.5713C74.3691 21.4268 74.7412 22.5869 74.7412 24.0518C74.7412 25.0596 74.5537 25.9531 74.1787 26.7324C73.8096 27.5117 73.2822 28.1152 72.5967 28.543C71.917 28.9648 71.1318 29.1758 70.2412 29.1758C68.876 29.1758 67.8154 28.7656 67.0596 27.9453C66.3037 27.125 65.9258 25.918 65.9258 24.3242C65.9258 23.3164 66.1191 22.4316 66.5059 21.6699C66.8984 20.9023 67.4404 20.3135 68.1318 19.9033C68.8232 19.4873 69.6172 19.2793 70.5137 19.2793ZM70.4258 20.7207C69.5352 20.7207 68.876 21.0137 68.4482 21.5996C68.0264 22.1797 67.8154 23.0557 67.8154 24.2275C67.8154 26.5654 68.6562 27.7373 70.3379 27.7432C71.2168 27.7432 71.8555 27.4443 72.2539 26.8467C72.6523 26.2432 72.8516 25.3408 72.8516 24.1396C72.8516 21.8604 72.043 20.7207 70.4258 20.7207ZM88.8564 18.1104C88.8037 18.0869 88.6748 18.0488 88.4697 17.9961C88.2705 17.9375 87.998 17.8818 87.6523 17.8291C87.3125 17.7764 86.9434 17.75 86.5449 17.75C85.332 17.75 84.3975 18.1924 83.7412 19.0771C83.0908 19.9561 82.7656 21.2246 82.7656 22.8828C82.7656 24.4414 83.1172 25.6104 83.8203 26.3896C84.5234 27.1689 85.4639 27.5586 86.6416 27.5586C87.2041 27.5586 87.752 27.4502 88.2852 27.2334C88.8184 27.0166 89.2754 26.7822 89.6562 26.5303C90.043 26.2783 90.2363 26.1406 90.2363 26.1172L90.957 27.2861C90.957 27.3213 90.7402 27.5059 90.3066 27.8398C89.8789 28.168 89.3311 28.4727 88.6631 28.7539C87.9951 29.0352 87.2598 29.1758 86.457 29.1758C84.6348 29.1758 83.2197 28.6426 82.2119 27.5762C81.2041 26.5098 80.7002 24.9746 80.7002 22.9707C80.7002 21.6055 80.9463 20.416 81.4385 19.4023C81.9307 18.3828 82.6279 17.5977 83.5303 17.0469C84.4385 16.4961 85.5049 16.2207 86.7295 16.2207C87.3154 16.2207 87.9072 16.2881 88.5049 16.4229C89.1084 16.5518 89.6387 16.6982 90.0957 16.8623C90.5527 17.0205 90.7812 17.1055 90.7812 17.1172L90.6934 20.1758H89.3398L88.8564 18.1104ZM92.9434 20C93.0371 19.9648 93.2715 19.8916 93.6465 19.7803C94.0273 19.6631 94.4756 19.5518 94.9912 19.4463C95.5068 19.335 95.9932 19.2793 96.4502 19.2793C97.54 19.2793 98.3662 19.4961 98.9287 19.9297C99.4971 20.3633 99.7812 21.0781 99.7812 22.0742V27.5586L101.223 27.9189V28.9121L98.4277 29L98.0498 27.7432C97.6631 28.1299 97.2148 28.4668 96.7051 28.7539C96.2012 29.0352 95.665 29.1758 95.0967 29.1758C94.2471 29.1758 93.585 28.9414 93.1104 28.4727C92.6357 27.998 92.3984 27.333 92.3984 26.4775C92.3984 25.4814 92.7559 24.7695 93.4707 24.3418C94.1855 23.9082 95.208 23.6914 96.5381 23.6914H97.9795V22.25C97.9795 21.7227 97.833 21.3213 97.54 21.0459C97.2471 20.7705 96.8223 20.6328 96.2656 20.6328C95.9434 20.6328 95.6475 20.6533 95.3779 20.6943C95.1084 20.7354 94.8945 20.7764 94.7363 20.8174C94.584 20.8584 94.4902 20.8848 94.4551 20.8965L94.2002 22.25H93.0312L92.9434 20ZM96.7227 24.8604C95.832 24.8604 95.1934 24.9805 94.8066 25.2207C94.4258 25.4609 94.2354 25.8506 94.2354 26.3896C94.2354 26.7998 94.3525 27.1279 94.5869 27.374C94.8213 27.6201 95.1436 27.7432 95.5537 27.7432C95.9521 27.7432 96.3301 27.6348 96.6875 27.418C97.0449 27.2012 97.3496 26.9668 97.6016 26.7148C97.8535 26.4629 97.9795 26.3252 97.9795 26.3018V24.8604H96.7227ZM105.617 20.7734C105.957 20.4043 106.358 20.0645 106.821 19.7539C107.29 19.4375 107.797 19.2793 108.342 19.2793C108.605 19.2793 108.854 19.2998 109.089 19.3408C109.329 19.3818 109.525 19.4258 109.678 19.4727C109.83 19.5137 109.924 19.54 109.959 19.5518L109.871 22.1621H108.693L108.43 20.8086C107.832 20.8086 107.316 20.9521 106.883 21.2393C106.449 21.5264 106.095 21.8516 105.819 22.2148V27.5586L107.621 28.0068V29H102.488V28.0068L104.018 27.5586V20.8965L102.488 20.5361V19.5518L105.459 19.4639L105.617 20.7734ZM116.709 20.8965H114.099V26.6797C114.099 27.4121 114.397 27.7783 114.995 27.7783C115.382 27.7783 115.851 27.6289 116.401 27.3301L116.885 28.2793C116.07 28.877 115.229 29.1758 114.362 29.1758C113.753 29.1758 113.255 28.9766 112.868 28.5781C112.487 28.1738 112.297 27.5059 112.297 26.5742V20.8965H110.495V19.7275L112.297 19.5518V17.2842L114.099 16.9238V19.5518H116.709V20.8965Z" fill="white"/>
</svg>
